<svg width="500" height="500" viewBox="0 0 500 500" fill="none" xmlns="http://www.w3.org/2000/svg">
<g clip-path="url(#clip0_1197_6)">
<rect width="500" height="500" fill="#C8C8C8"/>
<path d="M410.04 163.14C398.62 199.9 404.95 239.87 427.17 271.3C454.68 310.2 427.26 364 379.62 364.62C341.13 365.12 305.07 383.49 282.05 414.34C253.55 452.52 193.91 443.08 178.61 397.96C166.25 361.51 137.63 332.89 101.18 320.53C56.06 305.22 46.61 245.59 84.8 217.09C115.64 194.07 134.02 158 134.52 119.52C135.13 71.88 188.93 44.47 227.84 71.97C259.27 94.19 299.24 100.52 336 89.1C381.5 74.96 424.2 117.66 410.06 163.16L410.04 163.14Z" fill="white"/>
<path d="M332.36 129.49L290.68 140.66C270.96 145.94 264.36 170.59 278.79 185.03L309.3 215.54C323.73 229.97 348.38 223.37 353.67 203.65L364.84 161.97C370.12 142.25 352.08 124.21 332.36 129.49Z" fill="#C8C8C8"/>
<path d="M410.04 163.14C398.62 199.9 404.95 239.87 427.17 271.3C454.68 310.2 427.26 364 379.62 364.62C341.13 365.12 305.07 383.49 282.05 414.34C253.55 452.52 193.91 443.08 178.61 397.96C166.25 361.51 137.63 332.89 101.18 320.53C56.06 305.22 46.61 245.59 84.8 217.09C115.64 194.07 134.02 158 134.52 119.52C135.13 71.88 188.93 44.47 227.84 71.97C259.27 94.19 299.24 100.52 336 89.1C381.5 74.96 424.2 117.66 410.06 163.16L410.04 163.14Z" fill="white"/>
<path d="M332.36 129.49L290.68 140.66C270.96 145.94 264.36 170.59 278.79 185.03L309.3 215.54C323.73 229.97 348.38 223.37 353.67 203.65L364.84 161.97C370.12 142.25 352.08 124.21 332.36 129.49Z" fill="#C8C8C8"/>
</g>
<defs>
<clipPath id="clip0_1197_6">
<rect width="500" height="500" fill="white"/>
</clipPath>
</defs>
</svg>
