<svg width="32" height="30" viewBox="0 0 32 30" fill="none" xmlns="http://www.w3.org/2000/svg">
<path d="M0.0152337 9.94522C0.0152337 9.69018 0.0152337 9.43513 0.0152337 9.18009C0.0152337 9.10507 0.045701 9.03006 0.0609347 8.95505C0.106636 8.59498 0.121869 8.21992 0.182804 7.85985C0.914021 3.5541 4.44824 0.298522 8.7746 0.0284741C11.3339 -0.136555 13.6189 0.598575 15.6602 2.17385C15.7821 2.27887 15.904 2.36889 16.0258 2.4739C16.0563 2.4439 16.0715 2.4439 16.0868 2.4289C17.7015 1.04865 19.56 0.238511 21.6623 0.0434768C23.6427 -0.136555 25.5164 0.238511 27.2531 1.24369C30.9091 3.34406 32.6762 7.5448 31.7622 11.8356C31.3966 13.5609 30.6502 15.1061 29.7057 16.5614C28.487 18.4217 27.0093 20.072 25.4555 21.6473C22.7591 24.3928 19.8952 26.9432 17.0617 29.5387C16.3914 30.1538 15.6145 30.1538 14.9442 29.5387C13.9541 28.6235 12.9639 27.7083 11.9737 26.7932C9.68862 24.6928 7.40357 22.5924 5.30132 20.297C3.99122 18.8718 2.77253 17.3865 1.79757 15.7062C0.944488 14.236 0.335141 12.6757 0.106636 10.9804C0.0609347 10.6353 0.0304674 10.2903 0 9.94522H0.0152337Z" fill="#C8C8C8"/>
</svg>
