<svg width="500" height="500" viewBox="0 0 500 500" fill="none" xmlns="http://www.w3.org/2000/svg">
<circle cx="250" cy="250" r="205" stroke="url(#paint0_linear_699_94)" stroke-width="40"/>
<circle cx="295.5" cy="139.5" r="37.5" fill="#D4003B"/>
<path d="M279.843 153.125V146.733L296.279 121.113H306.43V146.626H311.372V153.125H306.43V160H298.75V153.125H279.843ZM288.007 146.626H298.857V129.976H298.481L288.007 146.304V146.626Z" fill="white"/>
<circle cx="295.5" cy="139.5" r="37.5" fill="#D4003B"/>
<path d="M313.611 116.118V151.782H306.736V116.118H313.611ZM314.9 158.604V164.082H280.847V148.345H287.776V158.604H314.9ZM291.428 123.53C291.375 129.976 294.812 136.313 302.869 138.892L299.377 144.263C293.872 142.437 290.059 138.784 287.883 134.111C285.708 139.133 281.787 143.162 276.067 145.122L272.522 139.697C280.74 136.958 284.285 130.137 284.285 123.53V118.804H291.428V123.53Z" fill="white"/>
<circle cx="200.5" cy="139.5" r="37.5" fill="#00A84D"/>
<path d="M186.277 160L186.223 154.146L200.188 141.309C203.84 137.817 205.774 135.669 205.774 132.607C205.774 129.17 203.142 127.021 199.597 127.021C195.945 127.021 193.582 129.331 193.582 133.037H185.901C185.847 125.41 191.487 120.576 199.705 120.576C208.03 120.576 213.562 125.303 213.562 132.07C213.562 136.475 211.414 140.127 203.411 147.378L197.502 153.125V153.34H214.099V160H186.277Z" fill="white"/>
<path d="M236.219 225.117V246.016H248.23V256.172H236.219V276.68H223.719V225.117H236.219ZM211.414 230.977C211.512 254.707 196.57 271.309 170.105 278.633L165.125 268.574C184.705 263.35 195.936 253.291 197.84 240.938H169.324V230.977H211.414ZM207.215 277.754C225.281 277.754 237.195 284.785 237.195 295.918C237.195 307.148 225.281 314.082 207.215 314.082C189.148 314.082 177.039 307.148 177.137 295.918C177.039 284.785 189.148 277.754 207.215 277.754ZM207.215 287.422C195.984 287.422 189.344 290.449 189.441 295.918C189.344 301.289 195.984 304.414 207.215 304.316C218.25 304.414 224.891 301.289 224.891 295.918C224.891 290.449 218.25 287.422 207.215 287.422ZM322.645 225.215V243.965H334.656V254.121H322.645V275.312H310.145V225.215H322.645ZM322.645 279.316V312.91H264.441V279.316H322.645ZM276.648 288.984V303.145H310.438V288.984H276.648ZM268.25 229.414V260.273C278.992 260.078 290.564 259.053 302.918 256.66L304.383 266.816C289.734 269.746 275.965 270.527 263.367 270.527H255.75V229.414H268.25Z" fill="black"/>
<defs>
<linearGradient id="paint0_linear_699_94" x1="-27" y1="250" x2="526" y2="250" gradientUnits="userSpaceOnUse">
<stop offset="0.5" stop-color="#00A84D"/>
<stop offset="0.5" stop-color="#D4003B"/>
</linearGradient>
</defs>
</svg>
