<svg width="500" height="500" viewBox="0 0 500 500" fill="none" xmlns="http://www.w3.org/2000/svg">
<circle cx="250" cy="250" r="205" stroke="#00A84D" stroke-width="40"/>
<circle cx="249.5" cy="139.5" r="37.5" fill="#00A84D"/>
<path d="M235.277 160L235.223 154.146L249.188 141.309C252.84 137.817 254.774 135.669 254.774 132.607C254.774 129.17 252.142 127.021 248.597 127.021C244.945 127.021 242.582 129.331 242.582 133.037H234.901C234.847 125.41 240.487 120.576 248.705 120.576C257.03 120.576 262.562 125.303 262.562 132.07C262.562 136.475 260.414 140.127 252.411 147.378L246.502 153.125V153.34H263.099V160H235.277Z" fill="white"/>
<path d="M194.947 232.539V240.449C194.947 251.191 195.045 263.691 190.943 282.93L178.736 281.66C180.201 274.922 181.08 268.916 181.666 263.496L130.104 266.426L128.346 255.781L182.447 254.023C182.643 249.824 182.691 246.016 182.74 242.5H131.275V232.539H194.947ZM203.053 293.574V303.73H121.998V293.574H151.002V272.09H163.404V293.574H203.053ZM284.791 225.117V278.34H272.975V225.117H284.791ZM266.822 226.582V277.656H255.299V257.344H249.342C247.242 267.354 239.381 273.945 229.225 273.848C217.408 273.945 208.814 265.059 208.814 252.168C208.814 239.473 217.408 230.488 229.225 230.488C239.479 230.488 247.34 237.227 249.342 247.285H255.299V226.582H266.822ZM284.791 281.758V314.082H272.389V291.621H223.365V281.758H284.791ZM229.225 241.035C223.756 241.035 219.947 245.234 219.947 252.168C219.947 259.395 223.756 263.594 229.225 263.594C234.596 263.594 238.6 259.395 238.697 252.168C238.6 245.234 234.596 241.035 229.225 241.035ZM341.627 236.836C341.627 249.824 353.15 263.789 373.268 267.207L367.799 277.559C352.32 274.482 340.797 265.791 335.084 254.316C329.176 265.693 317.652 274.434 302.271 277.559L296.9 267.207C316.627 263.691 328.248 249.727 328.346 236.836V230.391H341.627V236.836ZM376.197 292.793V303.047H294.85V292.793H376.197Z" fill="black"/>
</svg>
