<svg width="500" height="500" viewBox="0 0 500 500" fill="none" xmlns="http://www.w3.org/2000/svg">
<circle cx="250" cy="250" r="205" stroke="#00A84D" stroke-width="40"/>
<path d="M199.305 237.227C199.207 249.141 205.359 260.078 219.617 264.473L213.074 274.238C203.504 270.918 197.01 264.766 193.348 256.758C189.344 266.035 182.166 273.359 171.473 276.973L164.93 267.012C180.164 262.129 186.609 250.215 186.707 237.812V229.707H199.305V237.227ZM240.613 225.117V277.168H228.211V251.582H211.512V241.426H228.211V225.117H240.613ZM210.242 279.512C229.188 279.512 240.809 285.859 240.906 296.797C240.809 307.734 229.188 313.984 210.242 313.984C191.297 313.984 179.676 307.734 179.676 296.797C179.676 285.859 191.297 279.512 210.242 279.512ZM210.242 289.18C198.426 289.18 192.078 291.719 192.078 296.797C192.078 301.68 198.426 304.316 210.242 304.316C222.059 304.316 228.504 301.68 228.504 296.797C228.504 291.719 222.059 289.18 210.242 289.18ZM299.305 232.051C299.305 242.5 309.949 254.121 330.359 256.66L325.477 266.719C309.949 264.473 298.572 257.295 292.762 247.676C286.902 257.295 275.623 264.473 260.242 266.719L255.262 256.66C275.477 254.121 286.219 242.5 286.219 232.051V227.754H299.305V232.051ZM333.191 273.457V283.613H298.621V313.984H286.316V283.613H252.137V273.457H333.191Z" fill="black"/>
<circle cx="249.5" cy="139.5" r="37.5" fill="#00A84D"/>
<path d="M235.277 160L235.223 154.146L249.188 141.309C252.84 137.817 254.774 135.669 254.774 132.607C254.774 129.17 252.142 127.021 248.597 127.021C244.945 127.021 242.582 129.331 242.582 133.037H234.901C234.847 125.41 240.487 120.576 248.705 120.576C257.03 120.576 262.562 125.303 262.562 132.07C262.562 136.475 260.414 140.127 252.411 147.378L246.502 153.125V153.34H263.099V160H235.277Z" fill="white"/>
</svg>
