<svg width="500" height="500" viewBox="0 0 500 500" fill="none" xmlns="http://www.w3.org/2000/svg">
<circle cx="250" cy="250" r="205" stroke="#00A84D" stroke-width="40"/>
<circle cx="249.5" cy="139.5" r="37.5" fill="#00A84D"/>
<path d="M235.277 160L235.223 154.146L249.188 141.309C252.84 137.817 254.774 135.669 254.774 132.607C254.774 129.17 252.142 127.021 248.597 127.021C244.945 127.021 242.582 129.331 242.582 133.037H234.901C234.847 125.41 240.487 120.576 248.705 120.576C257.03 120.576 262.562 125.303 262.562 132.07C262.562 136.475 260.414 140.127 252.411 147.378L246.502 153.125V153.34H263.099V160H235.277Z" fill="white"/>
<path d="M240.125 225.215V290.059H227.625V225.215H240.125ZM242.469 302.461V312.422H180.555V283.809H193.152V302.461H242.469ZM199.793 238.691C199.695 250.41 205.945 261.934 220.594 266.621L214.246 276.387C204.236 273.066 197.303 266.426 193.348 257.93C189.393 267.061 182.264 274.385 171.863 277.949L165.418 268.086C180.359 263.105 186.805 250.703 186.805 238.691V230.098H199.793V238.691ZM333.191 272.969V282.832H252.137V272.969H286.414V263.203H298.719V272.969H333.191ZM298.719 225.312V233.906H325.379V243.574H299.793C301.209 250.312 310.389 256.611 329.578 258.223L325.574 267.695C309.412 266.328 298.133 261.25 292.566 253.633C287 261.25 275.721 266.328 259.559 267.695L255.555 258.223C274.646 256.611 283.826 250.312 285.438 243.574H259.949V233.906H286.414V225.312H298.719ZM324.012 302.461V312.422H261.902V287.91H274.402V302.461H324.012Z" fill="black"/>
</svg>
