<svg width="500" height="500" viewBox="0 0 500 500" fill="none" xmlns="http://www.w3.org/2000/svg">
<circle cx="250" cy="250" r="205" stroke="#EF7C1C" stroke-width="40"/>
<circle cx="249.5" cy="139.5" r="37.5" fill="#EF7C1C"/>
<path d="M248.893 160.537C240.353 160.537 234.229 155.811 234.068 149.043H242.232C242.394 151.943 245.187 153.877 248.946 153.877C252.813 153.877 255.606 151.675 255.553 148.56C255.606 145.391 252.76 143.135 248.194 143.135H244.596V137.173H248.194C252.008 137.173 254.693 135.078 254.693 132.017C254.693 129.062 252.438 127.021 249 127.021C245.562 127.021 242.716 128.955 242.608 131.909H234.874C234.981 125.195 241.051 120.576 249 120.576C257.11 120.576 262.535 125.356 262.481 131.533C262.535 135.884 259.474 138.999 255.123 139.751V140.073C260.816 140.771 263.985 144.263 263.932 149.097C263.985 155.757 257.647 160.537 248.893 160.537Z" fill="white"/>
<path d="M146.998 229.219C160.768 229.219 171.021 237.91 171.021 250.117C171.021 262.715 160.768 271.406 146.998 271.406C133.131 271.406 122.779 262.715 122.779 250.117C122.779 237.91 133.131 229.219 146.998 229.219ZM146.998 239.473C139.967 239.473 134.986 243.574 134.986 250.117C134.986 256.953 139.967 260.957 146.998 261.055C153.834 260.957 158.814 256.953 158.912 250.117C158.814 243.574 153.834 239.473 146.998 239.473ZM192.506 225.117V243.867H204.518V254.023H192.506V273.359H180.006V225.117H192.506ZM146.607 277.07V285.469H180.006V277.07H192.506V313.008H134.107V277.07H146.607ZM146.607 303.047H180.006V295.039H146.607V303.047ZM280.006 230.293V238.301C280.006 246.602 280.006 255.684 277.76 268.086H289.479V278.145H254.811V314.082H242.311V278.145H208.424V268.086H265.162C267.408 256.611 267.604 247.92 267.604 240.254H217.701V230.293H280.006ZM369.752 225.117V277.852H357.35V256.855H343.482V246.797H357.35V225.117H369.752ZM339.381 279.805C358.326 279.902 369.947 286.152 370.045 296.992C369.947 307.734 358.326 314.082 339.381 314.082C320.436 314.082 308.814 307.734 308.814 296.992C308.814 286.152 320.436 279.902 339.381 279.805ZM339.381 289.375C327.564 289.375 321.217 291.816 321.217 296.992C321.217 302.07 327.564 304.609 339.381 304.609C351.197 304.609 357.643 302.07 357.643 296.992C357.643 291.816 351.197 289.375 339.381 289.375ZM346.119 230.488V240.449H328.443C328.736 250.801 334.986 261.25 348.854 265.84L342.701 275.605C332.887 272.432 326.148 265.986 322.291 257.93C318.336 267.012 311.256 274.336 300.709 277.949L294.264 268.086C308.863 263.203 315.406 251.582 315.748 240.449H297.877V230.488H346.119Z" fill="black"/>
</svg>
