<svg width="500" height="500" viewBox="0 0 500 500" fill="none" xmlns="http://www.w3.org/2000/svg">
<circle cx="250" cy="250" r="205" stroke="url(#paint0_linear_700_79)" stroke-width="40"/>
<circle cx="295.5" cy="139.5" r="37.5" fill="#BB8336"/>
<path d="M279.843 153.125V146.733L296.279 121.113H306.43V146.626H311.372V153.125H306.43V160H298.75V153.125H279.843ZM288.007 146.626H298.857V129.976H298.481L288.007 146.304V146.626Z" fill="white"/>
<circle cx="295.5" cy="139.5" r="37.5" fill="#BB8336"/>
<path d="M294.57 120.576C302.627 120.63 310.254 125.41 310.254 139.536C310.308 152.749 304.023 160.537 294.248 160.537C286.406 160.537 281.089 155.649 280.283 149.043H288.232C288.877 151.89 291.133 153.608 294.248 153.608C299.565 153.608 302.358 148.882 302.358 141.094H302.036C300.21 144.531 296.396 146.572 292.046 146.572C285.063 146.572 279.907 141.309 279.854 134.058C279.854 126.216 285.762 120.522 294.57 120.576ZM294.624 126.914C290.649 126.914 287.695 129.976 287.749 133.843C287.749 137.656 290.596 140.664 294.57 140.664C298.491 140.664 301.553 137.549 301.553 133.789C301.499 130.083 298.599 126.914 294.624 126.914Z" fill="white"/>
<circle cx="200.5" cy="139.5" r="37.5" fill="#996CAC"/>
<path d="M200.607 160.537C192.497 160.537 186.589 155.757 186.428 149.043H194.27C194.431 152.104 197.224 154.146 200.607 154.146C204.636 154.146 207.482 151.299 207.482 147.271C207.482 143.135 204.582 140.288 200.5 140.234C197.6 140.234 195.559 141.309 194.377 143.511H187.072L189.167 121.113H213.122V127.72H195.827L194.753 137.549H195.075C196.525 135.615 199.426 134.272 202.863 134.272C210.007 134.272 215.324 139.59 215.324 147.056C215.324 154.897 209.362 160.537 200.607 160.537Z" fill="white"/>
<path d="M166.725 232.93V243.086H138.795V282.539C151.734 282.393 161.061 281.807 171.51 279.902L172.779 289.961C160.572 292.305 149.83 292.793 133.424 292.695H126.197V232.93H166.725ZM197.096 225.117V314.18H184.693V266.035H162.33V255.879H184.693V225.117H197.096ZM283.326 225.215V292.891H270.924V276.094H258.912V266.23H270.924V257.344H258.912V247.285H270.924V225.215H283.326ZM258.033 234.492V244.355H208.619V234.492H227.76V225.02H240.162V234.492H258.033ZM233.814 247.48C246.021 247.48 254.811 254.707 254.908 264.961C254.811 275.215 246.021 282.344 233.814 282.344C221.705 282.344 212.916 275.215 213.014 264.961C212.916 254.707 221.705 247.48 233.814 247.48ZM233.814 257.148C228.346 257.246 224.537 259.98 224.635 264.961C224.537 270.039 228.346 272.871 233.814 272.871C239.186 272.871 243.092 270.039 243.189 264.961C243.092 259.98 239.186 257.246 233.814 257.148ZM285.182 302.461V312.422H224.146V287.129H236.744V302.461H285.182ZM371.705 225.117V313.984H359.889V269.355H351.295V309.688H339.869V226.582H351.295V259.395H359.889V225.117H371.705ZM330.494 235.371V245.43H309.889V283.32C318.482 283.271 326.1 282.832 334.693 281.27L335.572 291.426C324.732 293.477 315.26 293.77 303.541 293.867H297.389V235.371H330.494Z" fill="black"/>
<defs>
<linearGradient id="paint0_linear_700_79" x1="-27" y1="250" x2="526" y2="250" gradientUnits="userSpaceOnUse">
<stop offset="0.5" stop-color="#996CAC"/>
<stop offset="0.5" stop-color="#BB8336"/>
</linearGradient>
</defs>
</svg>
