<svg width="500" height="500" viewBox="0 0 500 500" fill="none" xmlns="http://www.w3.org/2000/svg">
<circle cx="250" cy="250" r="205" stroke="#00A5DE" stroke-width="40"/>
<circle cx="249.5" cy="139.5" r="37.5" fill="#00A5DE"/>
<path d="M233.843 153.125V146.733L250.279 121.113H260.43V146.626H265.372V153.125H260.43V160H252.75V153.125H233.843ZM242.007 146.626H252.857V129.976H252.481L242.007 146.304V146.626Z" fill="white"/>
<path d="M196.412 225.215V290.059H183.912V225.215H196.412ZM198.756 302.461V312.422H136.842V283.809H149.439V302.461H198.756ZM156.08 238.691C155.982 250.41 162.232 261.934 176.881 266.621L170.533 276.387C160.523 273.066 153.59 266.426 149.635 257.93C145.68 267.061 138.551 274.385 128.15 277.949L121.705 268.086C136.646 263.105 143.092 250.703 143.092 238.691V230.098H156.08V238.691ZM289.479 267.207V277.168H208.424V267.207H226.686V256.562C220.191 253.682 216.529 249.287 216.529 243.574C216.529 232.832 229.127 226.387 248.951 226.387C268.58 226.387 281.178 232.832 281.275 243.574C281.227 249.336 277.418 253.828 270.826 256.66V267.207H289.479ZM248.854 281.855C268.092 281.855 279.713 287.52 279.811 297.773C279.713 308.223 268.092 313.887 248.854 313.887C229.322 313.887 217.701 308.223 217.701 297.773C217.701 287.52 229.322 281.855 248.854 281.855ZM248.854 291.23C236.549 291.23 230.299 293.379 230.396 297.773C230.299 302.363 236.549 304.609 248.854 304.609C260.865 304.609 267.213 302.363 267.311 297.773C267.213 293.379 260.865 291.23 248.854 291.23ZM248.951 235.957C236.354 235.957 229.42 238.594 229.518 243.574C229.42 248.457 236.354 250.898 248.951 250.898C261.354 250.898 268.385 248.457 268.385 243.574C268.385 238.594 261.354 235.957 248.951 235.957ZM239.283 267.207H258.424V259.785C255.494 260.127 252.32 260.273 248.951 260.273C245.484 260.273 242.262 260.127 239.283 259.688V267.207ZM327.662 240.352C327.564 251.68 334.01 262.715 348.463 267.402L341.92 277.168C332.203 273.896 325.514 267.5 321.705 259.395C317.701 268.33 310.621 275.312 300.318 278.828L293.385 268.965C308.521 264.277 315.064 252.363 315.162 240.254V230.586H327.662V240.352ZM365.357 225.117V250.801H377.369V261.348H365.357V290.254H352.857V225.117H365.357ZM368.678 302.461V312.422H307.643V283.809H320.338V302.461H368.678Z" fill="black"/>
</svg>
