<svg width="500" height="500" viewBox="0 0 500 500" fill="none" xmlns="http://www.w3.org/2000/svg">
<circle cx="250" cy="250" r="205" stroke="url(#paint0_linear_699_134)" stroke-width="40"/>
<circle cx="295.5" cy="139.5" r="37.5" fill="#E6186C"/>
<path d="M279.843 153.125V146.733L296.279 121.113H306.43V146.626H311.372V153.125H306.43V160H298.75V153.125H279.843ZM288.007 146.626H298.857V129.976H298.481L288.007 146.304V146.626Z" fill="white"/>
<circle cx="295.5" cy="139.5" r="37.5" fill="#E6186C"/>
<path d="M294.973 160.537C286.111 160.537 279.719 155.864 279.719 149.526C279.719 144.639 283.479 140.664 288.313 139.912V139.644C284.124 138.838 281.223 135.293 281.223 131.05C281.223 124.98 287.024 120.576 294.973 120.576C302.922 120.576 308.723 124.98 308.777 131.05C308.723 135.347 305.769 138.838 301.687 139.644V139.912C306.414 140.664 310.227 144.639 310.227 149.526C310.227 155.864 303.835 160.537 294.973 160.537ZM294.973 154.36C299.055 154.36 301.794 152.051 301.794 148.721C301.794 145.337 298.948 142.866 294.973 142.866C290.999 142.866 288.098 145.337 288.152 148.721C288.098 152.051 290.837 154.36 294.973 154.36ZM294.973 137.173C298.411 137.173 300.881 134.971 300.881 131.855C300.881 128.848 298.464 126.699 294.973 126.699C291.482 126.699 289.119 128.794 289.119 131.855C289.119 134.971 291.536 137.173 294.973 137.173Z" fill="white"/>
<circle cx="200.5" cy="139.5" r="37.5" fill="#00A84D"/>
<path d="M186.277 160L186.223 154.146L200.188 141.309C203.84 137.817 205.774 135.669 205.774 132.607C205.774 129.17 203.142 127.021 199.597 127.021C195.945 127.021 193.582 129.331 193.582 133.037H185.901C185.847 125.41 191.487 120.576 199.705 120.576C208.03 120.576 213.562 125.303 213.562 132.07C213.562 136.475 211.414 140.127 203.411 147.378L197.502 153.125V153.34H214.099V160H186.277Z" fill="white"/>
<path d="M216.004 230.293V240.254H198.328C198.475 250.459 204.773 260.713 219.129 265.059L212.879 275.02C203.016 271.895 196.131 265.645 192.176 257.832C188.172 266.621 181.043 273.604 170.594 276.973L164.148 267.012C178.895 262.373 185.486 251.338 185.73 240.254H167.566V230.293H216.004ZM236.219 225.117V245.234H248.23V255.391H236.219V276.68H223.719V225.117H236.219ZM236.219 280.195V313.008H178.113V280.195H236.219ZM190.418 289.961V303.047H223.914V289.961H190.418ZM326.453 225.117V270.137H314.051V225.117H326.453ZM326.551 273.945V298.066H279.285V303.535H328.992V313.398H267.078V288.789H314.148V283.613H266.883V273.945H326.551ZM286.219 233.906C286.121 244.648 292.566 255 307.117 259.199L301.062 268.77C290.857 265.791 283.826 259.639 279.871 251.777C275.77 260.371 268.494 267.207 257.898 270.332L251.746 260.566C266.59 256.172 273.23 244.941 273.23 233.906V227.07H286.219V233.906Z" fill="black"/>
<defs>
<linearGradient id="paint0_linear_699_134" x1="-27" y1="250" x2="526" y2="250" gradientUnits="userSpaceOnUse">
<stop offset="0.5" stop-color="#00A84D"/>
<stop offset="0.5" stop-color="#E6186C"/>
</linearGradient>
</defs>
</svg>
