<svg width="500" height="500" viewBox="0 0 500 500" fill="none" xmlns="http://www.w3.org/2000/svg">
<circle cx="250" cy="250" r="205" stroke="#D4003B" stroke-width="40"/>
<circle cx="249.5" cy="139.5" r="37.5" fill="#D4003B"/>
<path d="M267.611 116.118V151.782H260.736V116.118H267.611ZM268.9 158.604V164.082H234.847V148.345H241.776V158.604H268.9ZM245.428 123.53C245.375 129.976 248.812 136.313 256.869 138.892L253.377 144.263C247.872 142.437 244.059 138.784 241.883 134.111C239.708 139.133 235.787 143.162 230.067 145.122L226.522 139.697C234.74 136.958 238.285 130.137 238.285 123.53V118.804H245.428V123.53Z" fill="white"/>
<path d="M215.516 232.539V242.5H208.289V267.207C211.854 266.914 215.32 266.572 218.641 266.133L219.52 275.312C201.746 278.34 181.434 278.633 166.59 278.633L165.223 268.672L174.891 268.574V242.5H167.566V232.539H215.516ZM236.219 225.215V250.215H248.23V260.566H236.219V290.645H223.719V225.215H236.219ZM239.441 302.461V312.422H178.602V284.395H191.004V302.461H239.441ZM186.902 268.281L196.277 267.891V242.5H186.902V268.281ZM325.867 232.832V241.523C325.77 252.363 325.77 264.57 322.547 282.441L310.34 281.367C313.27 265.107 313.367 252.998 313.367 242.695H260.145V232.832H325.867ZM333.191 292.988V303.145H252.137V292.988H269.422V265.059H281.824V292.988H291.59V265.059H303.895V292.988H333.191Z" fill="black"/>
</svg>
