<svg width="500" height="500" viewBox="0 0 500 500" fill="none" xmlns="http://www.w3.org/2000/svg">
<circle cx="329.5" cy="139.5" r="37.5" fill="#77C4A3"/>
<path d="M313.843 153.125V146.733L330.279 121.113H340.43V146.626H345.372V153.125H340.43V160H332.75V153.125H313.843ZM322.007 146.626H332.857V129.976H332.481L322.007 146.304V146.626Z" fill="white"/>
<circle cx="329.5" cy="139.5" r="37.5" fill="#77C4A3"/>
<path d="M347.879 116.118V144.263H341.058V139.482H330.047V134.004H341.058V129.331H330.531C327.496 137.065 320.567 142.383 309.798 145.337L307.113 139.912C318.365 136.958 323.871 131.587 324.837 124.873H309.745V119.395H332.303C332.303 120.979 332.196 122.51 331.981 123.96H341.058V116.118H347.879ZM331.605 144.854C341.542 144.854 348.202 148.667 348.255 154.736C348.202 160.859 341.542 164.727 331.605 164.727C321.561 164.727 314.847 160.859 314.901 154.736C314.847 148.667 321.561 144.854 331.605 144.854ZM331.605 150.225C325.428 150.171 321.722 151.729 321.722 154.736C321.722 157.744 325.428 159.302 331.605 159.302C337.674 159.302 341.38 157.744 341.38 154.736C341.38 151.729 337.674 150.171 331.605 150.225Z" fill="white"/>
<circle cx="169.5" cy="139.5" r="37.5" fill="#00A84D"/>
<path d="M155.277 160L155.223 154.146L169.188 141.309C172.84 137.817 174.774 135.669 174.774 132.607C174.774 129.17 172.142 127.021 168.597 127.021C164.945 127.021 162.582 129.331 162.582 133.037H154.901C154.847 125.41 160.487 120.576 168.705 120.576C177.03 120.576 182.562 125.303 182.562 132.07C182.562 136.475 180.414 140.127 172.411 147.378L166.502 153.125V153.34H183.099V160H155.277Z" fill="white"/>
<circle cx="249.5" cy="139.5" r="37.5" fill="#0090D2"/>
<path d="M248.705 146.519C259.393 146.519 266.107 149.902 266.161 155.757C266.107 161.504 259.393 164.941 248.705 164.941C238.124 164.941 231.302 161.504 231.302 155.757C231.302 149.902 238.124 146.519 248.705 146.519ZM248.705 151.621C241.991 151.621 238.124 153.018 238.124 155.757C238.124 158.389 241.991 159.731 248.705 159.731C255.418 159.731 259.339 158.389 259.339 155.757C259.339 153.018 255.418 151.621 248.705 151.621ZM265.892 118.267V122.241C265.892 126.108 265.892 130.298 264.496 135.347L257.782 134.702C258.856 130.271 258.99 126.968 259.071 123.638H231.786V118.267H265.892ZM271.156 137.871V143.403H226.791V137.871H243.441V129.331H250.208V137.871H271.156Z" fill="white"/>
<path d="M119.215 286.25C138.941 286.348 150.074 291.23 150.172 300.215C150.074 309.297 138.941 313.984 119.215 313.984C99.293 313.984 88.0625 309.297 88.0625 300.215C88.0625 291.23 99.293 286.348 119.215 286.25ZM119.215 295.332C106.617 295.332 100.855 296.895 100.855 300.215C100.855 303.633 106.617 305 119.215 304.902C131.715 305 137.477 303.633 137.574 300.215C137.477 296.895 131.715 295.332 119.215 295.332ZM155.641 231.465V240.84H82.6914V231.465H113.062V224.434H125.562V231.465H155.641ZM119.312 243.281C138.551 243.281 149.195 247.578 149.195 256.074C149.195 263.447 140.846 267.695 125.562 268.574V273.164H159.84V282.832H78.7852V273.164H113.062V268.574C97.8281 267.695 89.332 263.447 89.4297 256.074C89.332 247.578 100.172 243.281 119.312 243.281ZM119.312 251.68C108.082 251.68 102.711 252.949 102.711 256.074C102.711 258.906 108.082 260.273 119.312 260.273C130.641 260.273 135.816 258.906 135.816 256.074C135.816 252.949 130.641 251.68 119.312 251.68ZM242.066 225.117V313.984H230.25V269.355H221.656V309.688H210.23V226.582H221.656V259.395H230.25V225.117H242.066ZM200.855 235.371V245.43H180.25V283.32C188.844 283.271 196.461 282.832 205.055 281.27L205.934 291.426C195.094 293.477 185.621 293.77 173.902 293.867H167.75V235.371H200.855ZM326.051 225.117V272.871H313.551V225.117H326.051ZM278.883 276.777V285.078H313.648V276.777H326.051V313.008H266.578V276.777H278.883ZM278.883 302.949H313.648V294.746H278.883V302.949ZM277.32 228.828C291.188 228.73 301.637 237.422 301.637 249.922C301.637 262.031 291.188 270.723 277.32 270.723C263.453 270.723 253.004 262.031 253.004 249.922C253.004 237.422 263.453 228.73 277.32 228.828ZM277.32 239.18C270.191 239.18 265.113 243.184 265.211 249.922C265.113 256.562 270.191 260.469 277.32 260.469C284.254 260.469 289.332 256.562 289.332 249.922C289.332 243.184 284.254 239.18 277.32 239.18ZM409.645 230.293V238.301C409.645 246.602 409.645 255.684 407.398 268.086H419.117V278.145H384.449V314.082H371.949V278.145H338.062V268.086H394.801C397.047 256.611 397.242 247.92 397.242 240.254H347.34V230.293H409.645Z" fill="black"/>
<circle cx="250" cy="250" r="205" stroke="url(#paint0_linear_700_92)" stroke-width="40"/>
<defs>
<linearGradient id="paint0_linear_700_92" x1="-27" y1="250" x2="526" y2="250" gradientUnits="userSpaceOnUse">
<stop offset="0.33" stop-color="#00A84D"/>
<stop offset="0.33" stop-color="#0090D2"/>
<stop offset="0.66" stop-color="#0090D2"/>
<stop offset="0.66" stop-color="#77C4A3"/>
</linearGradient>
</defs>
</svg>
